<?xml version="1.0" encoding="UTF-8"?>
<svg width="90px" height="90px" viewBox="0 0 90 90" version="1.1" xmlns="http://www.w3.org/2000/svg" xmlns:xlink="http://www.w3.org/1999/xlink">
    <!-- Generator: Sketch 48.2 (47327) - http://www.bohemiancoding.com/sketch -->
    <title>video</title>
    <desc>Created with Sketch.</desc>
    <defs></defs>
    <g id="Page-1" stroke="none" stroke-width="1" fill="none" fill-rule="evenodd">
        <g id="video" fill="#5B88FF" fill-rule="nonzero">
            <path d="M24,28.4 L24,49.1 L26.9,47 C27.8,46.4 29.1,46.6 29.7,47.5 C30.3,48.4 30.1,49.7 29.2,50.3 L23.1,54.6 C22.8,54.9 22.4,55 22,55 C21.7,55 21.4,54.9 21.1,54.8 C20.4,54.5 20,53.8 20,53 L20,25 C20,24.3 20.4,23.6 21,23.3 C21.6,22.9 22.4,22.9 23,23.3 L38,31.6 C39,32.1 39.3,33.4 38.8,34.3 C38.3,35.3 37,35.6 36.1,35.1 L24,28.4 Z M66,79 L66,83 C66,84.1 65.1,85 64,85 L2,85 C0.9,85 0,84.1 0,83 L0,2 C0,0.9 0.9,0 2,0 L46,0 C46.1,0 46.3,0 46.4,0 C46.4,0 46.5,0 46.5,0 C46.6,0 46.7,0 46.7,0.1 C46.8,0.1 46.8,0.2 46.9,0.2 C47,0.2 47,0.2 47,0.3 C47.1,0.4 47.2,0.5 47.3,0.5 L65.3,18.7 C65.3,18.7 65.3,18.7 65.4,18.8 C65.5,18.9 65.5,18.9 65.6,19 C65.6,19 65.6,19.1 65.7,19.2 C65.7,19.3 65.8,19.3 65.8,19.4 C65.8,19.5 65.8,19.5 65.9,19.6 C65.9,19.6 65.9,19.7 66,19.8 C66,19.9 66,20 66,20.1 C66,20.1 66,20.2 66,20.2 L66,29.3 C66,30.4 65.1,31.3 64,31.3 C62.9,31.3 62,30.4 62,29.3 L62,22.2 L46,22.2 C44.9,22.2 44,21.3 44,20.2 L44,4 L4,4 L4,69 L33,69 C34.1,69 35,69.9 35,71 C35,72.1 34.1,73 33,73 L4,73 L4,81 L62,81 L62,79 C62,77.9 62.9,77 64,77 C65.1,77 66,77.8 66,79 Z M48,18.2 L59.2,18.2 L48,6.9 L48,18.2 Z M54,42.2 C47.5,42.2 42.2,47.5 42.2,54 C42.2,60.5 47.5,65.8 54,65.8 C60.5,65.8 65.8,60.5 65.8,54 C65.7,47.5 60.4,42.2 54,42.2 Z M88.6,88.4 L88.4,88.5 C87.5,89.5 86.3,90 85,90 C83.8,90 82.5,89.5 81.6,88.6 L71.6,78.6 C70.2,77.2 69.8,75.1 70.5,73.4 L68,70.8 C64.2,74 59.3,75.9 54,75.9 C41.8,75.9 32,66 32,54 C32,41.9 41.8,32 54,32 C66.1,32 76,41.8 76,54 C76,59.3 74.1,64.2 70.9,68 L73.4,70.6 C75.1,69.9 77.2,70.3 78.6,71.7 L88.6,81.7 C90.5,83.5 90.5,86.6 88.6,88.4 Z M69.7,54 C69.7,45.3 62.6,38.2 53.9,38.2 C45.2,38.2 38.1,45.3 38.1,54 C38.1,62.7 45.2,69.8 53.9,69.8 C62.6,69.7 69.7,62.6 69.7,54 Z M40,9 C40,7.9 39.1,7 38,7 L9,7 C7.9,7 7,7.9 7,9 L7,63 C7,64.1 7.9,65 9,65 C10.1,65 11,64.1 11,63 L11,11 L38,11 C39.1,11 40,10.1 40,9 Z M57.6,25 C57.5,25 57.4,25.1 57.2,25.1 C57.1,25.1 57,25.2 56.9,25.3 C56.8,25.4 56.7,25.4 56.6,25.5 C56.5,25.6 56.4,25.7 56.4,25.8 C56.3,25.9 56.3,26 56.2,26.1 C56.2,26.2 56.1,26.3 56.1,26.5 C56.1,26.6 56.1,26.8 56.1,26.9 C56.1,27 56.1,27.2 56.1,27.3 C56.1,27.4 56.2,27.6 56.2,27.7 C56.3,27.8 56.3,27.9 56.4,28 C56.5,28.1 56.6,28.2 56.6,28.3 C57,28.8 57.5,29 58,29 C58.5,29 59,28.8 59.4,28.4 C59.8,28 60,27.5 60,27 C60,26.5 59.8,26 59.4,25.6 C59,25.1 58.3,24.9 57.6,25 Z M7,77 C7,78.1 7.9,79 9,79 L41,79 C42.1,79 43,78.1 43,77 C43,75.9 42.1,75 41,75 L9,75 C7.9,75 7,75.9 7,77 Z" id="Shape"></path>
        </g>
    </g>
</svg>